<svg width="137" height="40" viewBox="0 0 137 40" fill="none" xmlns="http://www.w3.org/2000/svg">
<path d="M131.926 0H5.07407C2.27174 0 0 2.23857 0 4.99998V34.9998C0 37.7612 2.27174 39.9998 5.07407 39.9998H131.926C134.728 39.9998 137 37.7612 137 34.9998V4.99998C137 2.23857 134.728 0 131.926 0Z" fill="white"/>
<path d="M131.926 0.80004C133.056 0.801327 134.139 1.24427 134.938 2.03168C135.737 2.8191 136.187 3.88668 136.188 5.00022V35.0001C136.187 36.1136 135.737 37.1812 134.938 37.9686C134.139 38.756 133.056 39.1989 131.926 39.2003H5.07407C3.94403 39.199 2.86064 38.756 2.0616 37.9686C1.26255 37.1812 0.813101 36.1136 0.811852 35.0001V5.00022C0.813082 3.88667 1.26252 2.81907 2.06157 2.03165C2.86062 1.24424 3.94402 0.801305 5.07407 0.80004H131.926ZM131.926 0.000244141H5.07407C3.72956 0.00412222 2.44123 0.532149 1.49051 1.46899C0.539788 2.40582 0.00393555 3.67534 0 5.00022L0 35.0001C0.00393555 36.325 0.539788 37.5945 1.49051 38.5313C2.44123 39.4681 3.72956 39.9962 5.07407 40H131.926C133.27 39.9962 134.559 39.4681 135.509 38.5313C136.46 37.5945 136.996 36.325 137 35.0001V5.00022C136.996 3.67534 136.46 2.40582 135.509 1.46899C134.559 0.532149 133.27 0.00412222 131.926 0.000244141V0.000244141Z" fill="#555555"/>
<path d="M48.1209 10.2433C48.1394 10.6103 48.0819 10.9771 47.9518 11.3214C47.8218 11.6657 47.6221 11.9804 47.3647 12.2462C47.0763 12.541 46.728 12.7724 46.3425 12.9254C45.9571 13.0784 45.5432 13.1494 45.128 13.1339C44.7101 13.1376 44.2957 13.0589 43.9091 12.9025C43.5225 12.7461 43.1715 12.5152 42.8768 12.2232C42.5821 11.9313 42.3496 11.5842 42.193 11.2024C42.0363 10.8207 41.9587 10.4119 41.9647 10.0001C41.9587 9.58836 42.0364 9.17958 42.193 8.7978C42.3497 8.41602 42.5822 8.06894 42.8769 7.77695C43.1716 7.48496 43.5225 7.25395 43.9091 7.09748C44.2957 6.94102 44.7101 6.86226 45.128 6.86584C45.5576 6.86456 45.983 6.95016 46.3777 7.11734C46.7443 7.26378 47.0706 7.49348 47.3301 7.78773L46.7949 8.31553C46.5909 8.07898 46.3346 7.89177 46.0455 7.76834C45.7565 7.64491 45.4426 7.58856 45.128 7.60364C44.8113 7.60202 44.4975 7.66341 44.2054 7.78412C43.9134 7.90483 43.649 8.08238 43.4282 8.30614C43.2075 8.5299 43.0348 8.79526 42.9206 9.08634C42.8063 9.37741 42.7529 9.68821 42.7634 10.0001C42.7559 10.4673 42.8893 10.9262 43.1468 11.3186C43.4042 11.711 43.7741 12.0192 44.2096 12.2041C44.645 12.3891 45.1264 12.4424 45.5927 12.3574C46.0589 12.2724 46.4891 12.0529 46.8286 11.7267C47.141 11.395 47.3221 10.9636 47.3389 10.5113H45.128V9.79062H48.0783C48.1062 9.93997 48.1205 10.0915 48.1209 10.2433Z" fill="black"/>
<path d="M52.7985 7.73743H50.0257V9.63973H52.5261V10.3605H50.0257V12.2628H52.7985V13.0001H49.2437V7.00014H52.7985V7.73743Z" fill="black"/>
<path d="M56.0977 13.0001H55.3148V7.73743H53.6141V7.00014H57.7983V7.73743H56.0977V13.0001Z" fill="black"/>
<path d="M60.8259 13.0001V7.00014H61.6078V13.0001H60.8259Z" fill="black"/>
<path d="M65.0784 13.0001H64.2955V7.73743H62.5949V7.00014H66.779V7.73743H65.0784V13.0001Z" fill="black"/>
<path d="M74.6999 12.2247C74.1072 12.807 73.3045 13.1339 72.4676 13.1339C71.6307 13.1339 70.8279 12.807 70.2353 12.2247C69.9421 11.9321 69.7116 11.5844 69.5575 11.2022C69.4035 10.82 69.3289 10.4112 69.3384 10.0001C69.3289 9.58901 69.4035 9.18022 69.5575 8.79806C69.7116 8.41589 69.9421 8.06816 70.2353 7.77553C70.5282 7.4868 70.8761 7.25783 71.2589 7.10174C71.6418 6.94564 72.0521 6.86548 72.4664 6.86584C72.8807 6.8662 73.2909 6.94708 73.6735 7.10385C74.0561 7.26062 74.4035 7.49019 74.6959 7.77943C74.9893 8.07129 75.2202 8.41824 75.375 8.79971C75.5297 9.18118 75.6052 9.58939 75.5968 10.0001C75.606 10.4112 75.5313 10.8199 75.3773 11.202C75.2232 11.5842 74.9928 11.9319 74.6999 12.2247ZM70.813 11.7223C71.252 12.1541 71.8468 12.3966 72.4671 12.3966C73.0873 12.3966 73.6822 12.1541 74.1211 11.7223C74.3462 11.4952 74.5222 11.2255 74.6386 10.9295C74.7549 10.6335 74.8092 10.3174 74.798 10.0001C74.8092 9.68288 74.7549 9.36671 74.6386 9.07071C74.5222 8.7747 74.3462 8.50501 74.1211 8.27793C73.6822 7.84614 73.0873 7.60362 72.4671 7.60362C71.8468 7.60362 71.252 7.84614 70.813 8.27793C70.5883 8.50519 70.4125 8.77494 70.2963 9.07091C70.1802 9.36689 70.126 9.68297 70.1372 10.0001C70.126 10.3173 70.1802 10.6334 70.2963 10.9293C70.4125 11.2253 70.5883 11.4951 70.813 11.7223Z" fill="black"/>
<path d="M76.6948 13.0001V7.00014H77.6472L80.6064 11.6676H80.6401L80.6064 10.5113V7.00014H81.3893V13.0001H80.5727L77.4767 8.10653H77.443L77.4767 9.26283V13.0001H76.6948Z" fill="black"/>
<path d="M48.1209 10.2433C48.1394 10.6103 48.0819 10.9771 47.9518 11.3214C47.8218 11.6657 47.6221 11.9804 47.3647 12.2462C47.0763 12.541 46.728 12.7724 46.3425 12.9254C45.9571 13.0784 45.5432 13.1494 45.128 13.1339C44.7101 13.1376 44.2957 13.0589 43.9091 12.9025C43.5225 12.7461 43.1715 12.5152 42.8768 12.2232C42.5821 11.9313 42.3496 11.5842 42.193 11.2024C42.0363 10.8207 41.9587 10.4119 41.9647 10.0001C41.9587 9.58836 42.0364 9.17958 42.193 8.7978C42.3497 8.41602 42.5822 8.06894 42.8769 7.77695C43.1716 7.48496 43.5225 7.25395 43.9091 7.09748C44.2957 6.94102 44.7101 6.86226 45.128 6.86584C45.5576 6.86456 45.983 6.95016 46.3777 7.11734C46.7443 7.26378 47.0706 7.49348 47.3301 7.78773L46.7949 8.31553C46.5909 8.07898 46.3346 7.89177 46.0455 7.76834C45.7565 7.64491 45.4426 7.58856 45.128 7.60364C44.8113 7.60202 44.4975 7.66341 44.2054 7.78412C43.9134 7.90483 43.649 8.08238 43.4282 8.30614C43.2075 8.5299 43.0348 8.79526 42.9206 9.08634C42.8063 9.37741 42.7529 9.68821 42.7634 10.0001C42.7559 10.4673 42.8893 10.9262 43.1468 11.3186C43.4042 11.711 43.7741 12.0192 44.2096 12.2041C44.645 12.3891 45.1264 12.4424 45.5927 12.3574C46.0589 12.2724 46.4891 12.0529 46.8286 11.7267C47.141 11.395 47.3221 10.9636 47.3389 10.5113H45.128V9.79062H48.0783C48.1062 9.93997 48.1205 10.0915 48.1209 10.2433Z" stroke="black" stroke-width="0.2" stroke-miterlimit="10"/>
<path d="M52.7985 7.73743H50.0257V9.63973H52.5261V10.3605H50.0257V12.2628H52.7985V13.0001H49.2437V7.00014H52.7985V7.73743Z" stroke="black" stroke-width="0.2" stroke-miterlimit="10"/>
<path d="M56.0977 13.0001H55.3148V7.73743H53.6141V7.00014H57.7983V7.73743H56.0977V13.0001Z" stroke="black" stroke-width="0.2" stroke-miterlimit="10"/>
<path d="M60.8259 13.0001V7.00014H61.6078V13.0001H60.8259Z" stroke="black" stroke-width="0.2" stroke-miterlimit="10"/>
<path d="M65.0784 13.0001H64.2955V7.73743H62.5949V7.00014H66.779V7.73743H65.0784V13.0001Z" stroke="black" stroke-width="0.2" stroke-miterlimit="10"/>
<path d="M74.6999 12.2247C74.1072 12.807 73.3045 13.1339 72.4676 13.1339C71.6307 13.1339 70.8279 12.807 70.2353 12.2247C69.9421 11.9321 69.7116 11.5844 69.5575 11.2022C69.4035 10.82 69.3289 10.4112 69.3384 10.0001C69.3289 9.58901 69.4035 9.18022 69.5575 8.79806C69.7116 8.41589 69.9421 8.06816 70.2353 7.77553C70.5282 7.4868 70.8761 7.25783 71.2589 7.10174C71.6418 6.94564 72.0521 6.86548 72.4664 6.86584C72.8807 6.8662 73.2909 6.94708 73.6735 7.10385C74.0561 7.26062 74.4035 7.49019 74.6959 7.77943C74.9893 8.07129 75.2202 8.41824 75.375 8.79971C75.5297 9.18118 75.6052 9.58939 75.5968 10.0001C75.606 10.4112 75.5313 10.8199 75.3773 11.202C75.2232 11.5842 74.9928 11.9319 74.6999 12.2247ZM70.813 11.7223C71.252 12.1541 71.8468 12.3966 72.4671 12.3966C73.0873 12.3966 73.6822 12.1541 74.1211 11.7223C74.3462 11.4952 74.5222 11.2255 74.6386 10.9295C74.7549 10.6335 74.8092 10.3174 74.798 10.0001C74.8092 9.68288 74.7549 9.36671 74.6386 9.07071C74.5222 8.7747 74.3462 8.50501 74.1211 8.27793C73.6822 7.84614 73.0873 7.60362 72.4671 7.60362C71.8468 7.60362 71.252 7.84614 70.813 8.27793C70.5883 8.50519 70.4125 8.77494 70.2963 9.07091C70.1802 9.36689 70.126 9.68297 70.1372 10.0001C70.126 10.3173 70.1802 10.6334 70.2963 10.9293C70.4125 11.2253 70.5883 11.4951 70.813 11.7223Z" stroke="black" stroke-width="0.2" stroke-miterlimit="10"/>
<path d="M76.6948 13.0001V7.00014H77.6472L80.6064 11.6676H80.6401L80.6064 10.5113V7.00014H81.3893V13.0001H80.5727L77.4767 8.10653H77.443L77.4767 9.26283V13.0001H76.6948Z" stroke="black" stroke-width="0.2" stroke-miterlimit="10"/>
<path d="M69.1452 21.7517C68.2922 21.7549 67.4593 22.007 66.7517 22.4763C66.0441 22.9456 65.4934 23.6109 65.1692 24.3884C64.845 25.1658 64.7619 26.0205 64.9303 26.8445C65.0987 27.6684 65.5111 28.4248 66.1153 29.018C66.7196 29.6112 67.4887 30.0146 68.3255 30.1774C69.1624 30.3402 70.0294 30.255 70.8171 29.9327C71.6048 29.6103 72.2779 29.0651 72.7515 28.366C73.225 27.6669 73.4777 26.8453 73.4777 26.0048C73.4861 25.4426 73.3796 24.8845 73.1647 24.3637C72.9497 23.8429 72.6306 23.37 72.2264 22.9732C71.8222 22.5764 71.3411 22.2638 70.8118 22.0539C70.2824 21.8441 69.7157 21.7413 69.1452 21.7517V21.7517ZM69.1452 28.5824C68.6199 28.6194 68.0955 28.4996 67.6402 28.2387C67.185 27.9778 66.82 27.5879 66.5928 27.1197C66.3656 26.6516 66.2867 26.1269 66.3664 25.6139C66.446 25.1009 66.6806 24.6235 67.0395 24.2437C67.3984 23.864 67.865 23.5995 68.3785 23.4847C68.8921 23.3699 69.4289 23.4101 69.9189 23.6001C70.409 23.7901 70.8296 24.1211 71.1261 24.55C71.4226 24.9789 71.5811 25.4858 71.5811 26.0048C71.5971 26.3326 71.5463 26.6603 71.4318 26.9685C71.3173 27.2767 71.1413 27.5592 70.9144 27.7994C70.6874 28.0396 70.4139 28.2326 70.1101 28.3671C69.8062 28.5016 69.4782 28.5748 69.1452 28.5824V28.5824ZM59.6938 21.7517C58.8408 21.7548 58.0079 22.007 57.3003 22.4762C56.5926 22.9455 56.042 23.6109 55.7178 24.3883C55.3936 25.1658 55.3104 26.0204 55.4788 26.8444C55.6472 27.6684 56.0595 28.4247 56.6638 29.0179C57.2681 29.6111 58.0372 30.0146 58.874 30.1774C59.7108 30.3402 60.5779 30.2551 61.3656 29.9327C62.1533 29.6103 62.8264 29.0651 63.3 28.366C63.7735 27.6669 64.0263 26.8453 64.0262 26.0048C64.0346 25.4426 63.9282 24.8845 63.7132 24.3637C63.4982 23.8429 63.1792 23.37 62.775 22.9732C62.3707 22.5764 61.8897 22.2638 61.3603 22.0539C60.831 21.8441 60.2643 21.7413 59.6938 21.7517V21.7517ZM59.6938 28.5824C59.1685 28.6194 58.6441 28.4996 58.1889 28.2387C57.7336 27.9778 57.3687 27.5879 57.1414 27.1197C56.9142 26.6516 56.8353 26.1269 56.915 25.6139C56.9947 25.1009 57.2292 24.6235 57.5881 24.2437C57.947 23.864 58.4136 23.5995 58.9272 23.4847C59.4407 23.3699 59.9775 23.4101 60.4676 23.6001C60.9576 23.7901 61.3782 24.1211 61.6747 24.55C61.9712 24.9789 62.1298 25.4858 62.1298 26.0048C62.1457 26.3326 62.0949 26.6603 61.9804 26.9685C61.8659 27.2767 61.69 27.5592 61.463 27.7994C61.236 28.0396 60.9625 28.2326 60.6587 28.3671C60.3549 28.5016 60.0268 28.5748 59.6938 28.5824ZM48.4509 23.0567V24.861H52.8325C52.7693 25.7073 52.4179 26.5077 51.8352 27.1326C51.3961 27.5736 50.868 27.919 50.2851 28.1465C49.7022 28.3741 49.0773 28.4787 48.4509 28.4535C47.1702 28.4365 45.9478 27.9231 45.0482 27.0247C44.1487 26.1262 43.6444 24.9148 43.6444 23.6527C43.6444 22.3905 44.1487 21.1792 45.0482 20.2807C45.9478 19.3822 47.1702 18.8689 48.4509 18.8518C49.681 18.836 50.8679 19.2991 51.7535 20.1406L53.045 18.8679C52.4408 18.2784 51.7232 17.8137 50.9343 17.5011C50.1454 17.1885 49.3011 17.0343 48.4509 17.0474C47.5624 17.0347 46.6802 17.1961 45.8556 17.5223C45.031 17.8485 44.2804 18.3331 43.6476 18.9477C43.0147 19.5623 42.5121 20.2948 42.1691 21.1025C41.8261 21.9102 41.6494 22.7771 41.6494 23.6527C41.6494 24.5283 41.8261 25.3951 42.1691 26.2029C42.5121 27.0106 43.0147 27.7431 43.6476 28.3577C44.2804 28.9723 45.031 29.4568 45.8556 29.783C46.6802 30.1093 47.5624 30.2707 48.4509 30.2579C49.319 30.2934 50.1849 30.1466 50.991 29.8272C51.7972 29.5077 52.5252 29.0231 53.1267 28.4052C54.1947 27.2565 54.764 25.7415 54.7127 24.1844C54.7169 23.8062 54.684 23.4286 54.6144 23.0567H48.4509ZM94.4304 24.4582C94.171 23.6878 93.6773 23.0148 93.0162 22.5306C92.3551 22.0464 91.5588 21.7744 90.7355 21.7517C90.1809 21.7551 89.6328 21.8692 89.1243 22.0873C88.6158 22.3053 88.1574 22.6227 87.7769 23.0202C87.3964 23.4178 87.1016 23.8872 86.9105 24.4002C86.7193 24.9132 86.6357 25.459 86.6646 26.0048C86.6521 26.5639 86.7541 27.1199 86.9646 27.6393C87.175 28.1588 87.4895 28.6311 87.8893 29.0281C88.2892 29.4251 88.7661 29.7386 89.2916 29.9499C89.8172 30.1612 90.3805 30.266 90.9481 30.2579C91.6591 30.2618 92.36 30.0916 92.9877 29.7626C93.6155 29.4336 94.1505 28.9561 94.5448 28.373L93.0734 27.4065C92.853 27.7672 92.5412 28.0653 92.1686 28.2714C91.796 28.4776 91.3754 28.5848 90.9481 28.5824C90.5083 28.599 90.0737 28.485 89.7005 28.2552C89.3274 28.0254 89.0329 27.6904 88.8553 27.2937L94.6267 24.9416L94.4304 24.4582ZM88.5448 25.876C88.5245 25.5664 88.567 25.256 88.6699 24.9628C88.7728 24.6696 88.934 24.3996 89.1441 24.1686C89.3542 23.9376 89.6089 23.7502 89.8934 23.6173C90.1778 23.4845 90.4863 23.4089 90.8008 23.395C91.1283 23.3737 91.4548 23.448 91.7398 23.6084C92.0247 23.7688 92.2554 24.0084 92.4031 24.2972L88.5448 25.876ZM83.8525 30.0001H85.749V17.4986H83.8525V30.0001ZM80.7461 22.7022H80.6808C80.3925 22.3935 80.0406 22.149 79.6487 21.9851C79.2567 21.8212 78.8338 21.7416 78.4082 21.7517C77.2953 21.7984 76.2436 22.2669 75.4729 23.0594C74.7021 23.8519 74.2718 24.9071 74.2718 26.0048C74.2718 27.1025 74.7021 28.1577 75.4729 28.9503C76.2436 29.7428 77.2953 30.2113 78.4082 30.2579C78.8355 30.2691 79.2602 30.1885 79.6526 30.0215C80.0451 29.8546 80.396 29.6054 80.6808 29.2913H80.7461V29.9035C80.7461 31.5307 79.8633 32.4006 78.4409 32.4006C77.9668 32.3894 77.5069 32.2394 77.1197 31.9697C76.7324 31.7 76.4354 31.3229 76.2665 30.8862L74.6152 31.5629C74.9265 32.3096 75.4568 32.9477 76.1384 33.3954C76.82 33.8432 77.6217 34.0802 78.4409 34.0761C80.6644 34.0761 82.5446 32.7873 82.5446 29.6457V22.0094H80.7461V22.7022ZM78.5718 28.5824C77.9163 28.5277 77.3055 28.2324 76.8605 27.755C76.4154 27.2777 76.1684 26.6531 76.1684 26.0048C76.1684 25.3566 76.4154 24.7319 76.8605 24.2546C77.3055 23.7772 77.9163 23.4819 78.5718 23.4272C78.8979 23.4429 79.2175 23.5231 79.5115 23.6631C79.8054 23.8031 80.0678 24 80.2829 24.242C80.498 24.484 80.6615 24.7663 80.7635 25.0719C80.8656 25.3775 80.9042 25.7002 80.8769 26.0209C80.9024 26.3395 80.8625 26.6599 80.7594 26.963C80.6563 27.266 80.4923 27.5455 80.2771 27.7846C80.0619 28.0238 79.7999 28.2177 79.5069 28.3548C79.2139 28.4918 78.8959 28.5693 78.5718 28.5824V28.5824ZM103.314 17.4988H98.7766V30.0001H100.67V25.2638H103.314C103.85 25.2927 104.386 25.2137 104.889 25.0317C105.393 24.8496 105.853 24.5683 106.243 24.205C106.632 23.8416 106.943 23.4038 107.155 22.9183C107.367 22.4328 107.476 21.9098 107.476 21.3813C107.476 20.8527 107.367 20.3297 107.155 19.8442C106.943 19.3588 106.632 18.9209 106.243 18.5576C105.853 18.1942 105.393 17.9129 104.889 17.7309C104.386 17.5488 103.85 17.4699 103.314 17.4988V17.4988ZM103.363 23.524H100.67V19.2387H103.363C103.652 19.2328 103.94 19.2838 104.209 19.3889C104.478 19.4939 104.723 19.6508 104.93 19.8503C105.137 20.0499 105.301 20.2881 105.413 20.551C105.525 20.8139 105.583 21.0962 105.583 21.3813C105.583 21.6665 105.525 21.9488 105.413 22.2117C105.301 22.4746 105.137 22.7128 104.93 22.9124C104.723 23.1119 104.478 23.2688 104.209 23.3738C103.94 23.4788 103.652 23.5299 103.363 23.524V23.524ZM115.065 21.7287C114.374 21.6889 113.686 21.8488 113.086 22.1888C112.486 22.5288 112 23.0341 111.687 23.6426L113.368 24.3342C113.535 24.0321 113.787 23.7846 114.094 23.6217C114.402 23.4589 114.75 23.3879 115.098 23.4174C115.578 23.3712 116.058 23.5145 116.431 23.816C116.804 24.1175 117.041 24.5525 117.089 25.0257V25.1544C116.481 24.836 115.803 24.6703 115.114 24.6719C113.303 24.6719 111.458 25.653 111.458 27.4865C111.476 27.8729 111.572 28.2518 111.741 28.6009C111.91 28.95 112.149 29.262 112.443 29.5185C112.736 29.7751 113.08 29.9708 113.452 30.0941C113.824 30.2175 114.217 30.266 114.608 30.2366C115.085 30.2643 115.561 30.1655 115.986 29.9505C116.41 29.7355 116.769 29.4123 117.024 29.0143H117.089V29.9793H118.917V25.1866C118.917 22.9671 117.236 21.7287 115.065 21.7287V21.7287ZM114.837 28.58C114.217 28.58 113.352 28.2745 113.352 27.5186C113.352 26.5537 114.429 26.1837 115.359 26.1837C115.964 26.1678 116.561 26.3122 117.089 26.6019C117.02 27.1441 116.753 27.6432 116.339 28.0068C115.925 28.3705 115.392 28.5741 114.837 28.58V28.58ZM125.576 22.0021L123.406 27.4221H123.34L121.088 22.0021H119.048L122.426 29.5772L120.5 33.791H122.475L127.682 22.0021H125.576ZM108.521 30.0001H110.414V17.4988H108.521V30.0001Z" fill="black"/>
<path d="M10.5898 7.53818C10.257 7.93025 10.089 8.43287 10.1201 8.94307V31.0591C10.0889 31.5693 10.2569 32.0719 10.5898 32.464L10.6649 32.5361L23.2374 20.1472V19.8549L10.6649 7.46558L10.5898 7.53818Z" fill="url(#paint0_linear_772_6874)"/>
<path d="M27.4281 24.2784L23.2375 20.147V19.8547L27.4291 15.7244L27.5236 15.7775L32.4889 18.5576C33.9072 19.3515 33.9072 20.6507 32.4889 21.4452L27.5236 24.2253L27.4281 24.2784Z" fill="url(#paint1_linear_772_6874)"/>
<path d="M27.5236 24.2249L23.2375 20.001L10.5898 32.4638C10.8788 32.715 11.2479 32.8586 11.633 32.8698C12.0182 32.881 12.3952 32.7591 12.6987 32.5252L27.5236 24.2249Z" fill="url(#paint2_linear_772_6874)"/>
<path d="M27.5236 15.777L12.6987 7.47666C12.3952 7.24275 12.0182 7.12084 11.633 7.13206C11.2479 7.14327 10.8788 7.2869 10.5898 7.53805L23.2375 20.001L27.5236 15.777Z" fill="url(#paint3_linear_772_6874)"/>
<path opacity="0.2" d="M27.4291 24.1318L12.6987 32.3791C12.4069 32.598 12.0507 32.7175 11.6839 32.7194C11.3171 32.7213 10.9596 32.6056 10.6654 32.3898L10.5898 32.4643L10.6649 32.5364L10.6654 32.5359C10.9596 32.7519 11.3171 32.8676 11.6839 32.8657C12.0507 32.8638 12.4069 32.7442 12.6987 32.5252L27.5236 24.2248L27.4291 24.1318Z" fill="white"/>
<path opacity="0.12" d="M10.5898 32.3182C10.257 31.9261 10.089 31.4235 10.1201 30.9133V31.0594C10.089 31.5696 10.257 32.0722 10.5898 32.4643L10.6654 32.3898L10.5898 32.3182Z" fill="white"/>
<path opacity="0.12" d="M32.4887 21.2988L27.429 24.1319L27.5234 24.2249L32.4887 21.4449C32.7808 21.32 33.0335 21.1202 33.2207 20.8663C33.4078 20.6124 33.5224 20.3138 33.5526 20.0015C33.4898 20.2843 33.3609 20.5488 33.1763 20.774C32.9916 20.9992 32.7562 21.1789 32.4887 21.2988V21.2988Z" fill="white"/>
<path opacity="0.25" d="M12.6987 7.62334L32.4888 18.7033C32.7563 18.8231 32.9918 19.0029 33.1765 19.2282C33.3612 19.4535 33.49 19.7181 33.5526 20.0011C33.5226 19.6886 33.4081 19.3898 33.221 19.1358C33.0339 18.8819 32.781 18.682 32.4888 18.5572L12.6987 7.47724C11.2804 6.68315 10.1201 7.34274 10.1201 8.94353V9.08963C10.1201 7.48894 11.2804 6.82934 12.6987 7.62334Z" fill="black"/>
<defs>
<linearGradient id="paint0_linear_772_6874" x1="22.1225" y1="8.70988" x2="5.34199" y2="25.7391" gradientUnits="userSpaceOnUse">
<stop stop-color="#00A0FF"/>
<stop offset="0.00657" stop-color="#00A1FF"/>
<stop offset="0.2601" stop-color="#00BEFF"/>
<stop offset="0.5122" stop-color="#00D2FF"/>
<stop offset="0.7604" stop-color="#00DFFF"/>
<stop offset="1" stop-color="#00E3FF"/>
</linearGradient>
<linearGradient id="paint1_linear_772_6874" x1="34.3355" y1="20.0014" x2="9.78017" y2="20.0014" gradientUnits="userSpaceOnUse">
<stop stop-color="#FFE000"/>
<stop offset="0.4087" stop-color="#FFBD00"/>
<stop offset="0.7754" stop-color="#FFA500"/>
<stop offset="1" stop-color="#FF9C00"/>
</linearGradient>
<linearGradient id="paint2_linear_772_6874" x1="25.1946" y1="22.2961" x2="2.4389" y2="45.389" gradientUnits="userSpaceOnUse">
<stop stop-color="#FF3A44"/>
<stop offset="1" stop-color="#C31162"/>
</linearGradient>
<linearGradient id="paint3_linear_772_6874" x1="7.40528" y1="0.176272" x2="17.5667" y2="10.4882" gradientUnits="userSpaceOnUse">
<stop stop-color="#32A071"/>
<stop offset="0.0685" stop-color="#2DA771"/>
<stop offset="0.4762" stop-color="#15CF74"/>
<stop offset="0.8009" stop-color="#06E775"/>
<stop offset="1" stop-color="#00F076"/>
</linearGradient>
</defs>
</svg>
